<?xml version="1.0"?>
<svg version="1.1" xmlns="http://www.w3.org/2000/svg" width="272px" height="40px" style=""><path fill="#105282" d="M65.848,36.8l0-1.764l-4.984,0q-3.472,0-5.824-2.352t-2.352-5.824q0-3.192,2.352-5.488t5.824-2.296l4.984,0l0-1.82l-4.984,0q-4.228,0-7.084,2.8q-2.856,2.772-2.856,6.804q0,4.284,2.856,7.084q2.8,2.856,7.084,2.856l4.984,0z M77.26752,17.2q-3.164,0-5.432,2.268q-2.296,2.296-2.296,5.46l0,4.228q0,3.108,2.296,5.404t5.432,2.296q3.164,0,5.46-2.296q2.268-2.268,2.268-5.404l0-4.228q0-3.192-2.268-5.46t-5.46-2.268z M83.25952,24.928l0,4.228q0,2.548-1.792,4.284q-1.764,1.68-4.2,1.68t-4.172-1.68q-1.792-1.736-1.792-4.284l0-4.228q0-2.352,1.792-4.2q1.792-1.792,4.172-1.792q2.352,0,4.2,1.792q1.792,1.848,1.792,4.2z M95.29504,17.172l-4.284,0l-1.064,0l-0.7,0l0,19.628l0.7,0l1.064,0l4.284,0q4.088,0,7-2.856q2.996-2.94,2.996-7.14q0-3.976-2.996-6.832q-2.94-2.8-7-2.8z M95.29504,35.036l-4.284,0l0-16.044l4.284,0q3.5,0,5.88,2.296q2.352,2.296,2.352,5.516q0,3.5-2.352,5.852q-2.38,2.38-5.88,2.38z M110.91456,31.424q0-1.344,0.952-2.436q0.952-1.148,2.296-1.148l0.364,0l5.236,0l0-1.736l-5.236,0l-0.364,0q-1.428-0.28-2.338-1.232t-0.91-2.268q0-1.652,0.966-2.618t2.646-0.966l9.52,0l0-1.764l-9.52,0q-2.156,0-3.752,1.596q-1.596,1.54-1.596,3.752q0,1.4,0.532,2.548t1.568,1.652q-1.036,0.756-1.568,1.988t-0.532,2.632q0,2.184,1.596,3.724q1.624,1.624,3.752,1.624l9.52,0l0-1.848l-9.52,0q-1.68,0-2.646-0.952t-0.966-2.548z M135.27008,17.088q-3.136,0-5.264,2.268q-2.1,2.24-2.1,5.46l0,11.984l1.764,0l0-8.792l11.256,0l0,8.792l1.764,0l0-11.984q0-3.22-2.1-5.46q-2.184-2.268-5.32-2.268z M140.92608,26.272l-11.256,0l0-1.456q0-2.408,1.624-4.172q1.652-1.792,3.976-1.792t4.032,1.792q1.624,1.764,1.624,4.172l0,1.456z M161.8656,36.8l0-1.764l-4.984,0q-3.472,0-5.824-2.352t-2.352-5.824q0-3.192,2.352-5.488t5.824-2.296l4.984,0l0-1.82l-4.984,0q-4.228,0-7.084,2.8q-2.856,2.772-2.856,6.804q0,4.284,2.856,7.084q2.8,2.856,7.084,2.856l4.984,0z M172.92112,17.088q-3.136,0-5.264,2.268q-2.1,2.24-2.1,5.46l0,11.984l1.764,0l0-8.792l11.256,0l0,8.792l1.764,0l0-11.984q0-3.22-2.1-5.46q-2.184-2.268-5.32-2.268z M178.57712,26.272l-11.256,0l0-1.456q0-2.408,1.624-4.172q1.652-1.792,3.976-1.792t4.032,1.792q1.624,1.764,1.624,4.172l0,1.456z M190.78064,17.172l-4.284,0l-1.064,0l-0.7,0l0,19.628l0.7,0l1.064,0l4.284,0q4.088,0,7-2.856q2.996-2.94,2.996-7.14q0-3.976-2.996-6.832q-2.94-2.8-7-2.8z M190.78064,35.036l-4.284,0l0-16.044l4.284,0q3.5,0,5.88,2.296q2.352,2.296,2.352,5.516q0,3.5-2.352,5.852q-2.38,2.38-5.88,2.38z M206.40016,31.424q0-1.344,0.952-2.436q0.952-1.148,2.296-1.148l0.364,0l5.236,0l0-1.736l-5.236,0l-0.364,0q-1.428-0.28-2.338-1.232t-0.91-2.268q0-1.652,0.966-2.618t2.646-0.966l9.52,0l0-1.764l-9.52,0q-2.156,0-3.752,1.596q-1.596,1.54-1.596,3.752q0,1.4,0.532,2.548t1.568,1.652q-1.036,0.756-1.568,1.988t-0.532,2.632q0,2.184,1.596,3.724q1.624,1.624,3.752,1.624l9.52,0l0-1.848l-9.52,0q-1.68,0-2.646-0.952t-0.966-2.548z M223.11168,36.744l1.736,0l0-11.844q0-2.352,1.792-4.144t4.144-1.792q2.296,0,4.144,1.792q1.764,1.764,1.764,4.144l0,11.844l1.792,0l0-11.844q0-2.408,1.792-4.144q1.792-1.792,4.116-1.792q2.352,0,4.144,1.792t1.792,4.144l0,11.844l1.736,0l0-11.844q0-3.192-2.24-5.432t-5.432-2.24q-2.1,0-3.948,1.148q-1.876,1.176-2.688,2.996q-1.092-1.876-2.94-2.996q-1.932-1.148-4.032-1.148q-3.164,0-5.404,2.24q-2.268,2.268-2.268,5.432l0,11.844z M271.2392,17.2l-1.736,0l0,2.072q0,2.576-1.792,4.312q-1.764,1.68-4.2,1.68q-2.604,0-4.284-1.68t-1.68-4.312l0-2.072l-1.736,0l0,2.072q0,3.136,1.904,5.32q1.876,2.212,4.76,2.408l0,9.828l1.764,0l0-9.828q2.94-0.224,4.956-2.408q2.044-2.184,2.044-5.32l0-2.072z"/><path fill="#" d=""/></svg>
